# xmcd
# 
# Track frame offsets:
#     150
#     21254
#     39223
#     53392
#     65571
#     78968
#     95073
#     118383
#     132289
#     153335
#     166485
#     179251
#     193742
#     214367
#     230697
# 
# Disc length: 3247
# 
# Revision: 3
# Processed by: cddbd v1.5.2PL0 Copyright (c) Steve Scherf et al.
# Submitted via: BonkEnc v1.0.8
# 
DISCID=d00cad0f
DTITLE=John Denver - Goodbye Again
DYEAR=2002
DGENRE=Country
TTITLE0=Rocky Mountain High
TTITLE1=Leaving' On A Jet Plane
TTITLE2=Take Me Home Contry Roads
TTITLE3=Garden Song
TTITLE4=Annies Song
TTITLE5=Calypso
TTITLE6=Sunshine On My Shoulders
TTITLE7=Thank God I'm A Country Boy
TTITLE8=Back Home Again
TTITLE9=For Baby (For Bobbie)
TTITLE10=Follow Me
TTITLE11=Rhymes And Reasons
TTITLE12=Poems, Prayers And Promises
TTITLE13=Goodbye Again
TTITLE14=Wrangell Mountain Song
EXTD=
EXTT0=
EXTT1=
EXTT2=
EXTT3=
EXTT4=
EXTT5=
EXTT6=
EXTT7=
EXTT8=
EXTT9=
EXTT10=
EXTT11=
EXTT12=
EXTT13=
EXTT14=
PLAYORDER=
